<svg width="534" height="209" viewBox="0 0 534 209" fill="none" xmlns="http://www.w3.org/2000/svg">
<path d="M185.788 116.728H169.805L167.16 124.375H158.708L173.139 84.186H182.511L196.943 124.375H188.433L185.788 116.728ZM183.604 110.289L177.797 93.5002L171.989 110.289H183.604Z" fill="white"/>
<path d="M230.107 92.5228V124.375H222V120.351C220.965 121.731 219.605 122.823 217.918 123.628C216.27 124.395 214.468 124.778 212.514 124.778C210.022 124.778 207.818 124.26 205.902 123.225C203.985 122.152 202.471 120.6 201.359 118.568C200.286 116.498 199.75 114.045 199.75 111.209V92.5228H207.799V110.059C207.799 112.589 208.431 114.544 209.696 115.924C210.961 117.265 212.686 117.936 214.871 117.936C217.094 117.936 218.838 117.265 220.103 115.924C221.368 114.544 222 112.589 222 110.059V92.5228H230.107Z" fill="white"/>
<path d="M245.121 99.1348V114.544C245.121 115.617 245.37 116.403 245.869 116.901C246.405 117.361 247.287 117.591 248.513 117.591H252.251V124.375H247.191C240.407 124.375 237.014 121.079 237.014 114.486V99.1348H233.22V92.5228H237.014V84.6459H245.121V92.5228H252.251V99.1348H245.121Z" fill="white"/>
<path d="M269.884 124.893C266.818 124.893 264.058 124.222 261.605 122.88C259.152 121.501 257.216 119.565 255.798 117.073C254.418 114.582 253.728 111.707 253.728 108.449C253.728 105.191 254.437 102.316 255.855 99.8248C257.312 97.3333 259.286 95.4168 261.777 94.0752C264.269 92.6953 267.048 92.0054 270.114 92.0054C273.181 92.0054 275.96 92.6953 278.451 94.0752C280.943 95.4168 282.897 97.3333 284.316 99.8248C285.772 102.316 286.5 105.191 286.5 108.449C286.5 111.707 285.753 114.582 284.258 117.073C282.802 119.565 280.808 121.501 278.279 122.88C275.787 124.222 272.989 124.893 269.884 124.893ZM269.884 117.878C271.341 117.878 272.702 117.533 273.966 116.843C275.27 116.115 276.305 115.042 277.071 113.624C277.838 112.205 278.221 110.481 278.221 108.449C278.221 105.421 277.416 103.102 275.806 101.492C274.235 99.8439 272.299 99.0198 269.999 99.0198C267.699 99.0198 265.764 99.8439 264.192 101.492C262.659 103.102 261.892 105.421 261.892 108.449C261.892 111.477 262.64 113.815 264.135 115.464C265.668 117.073 267.584 117.878 269.884 117.878Z" fill="white"/>
<path d="M329.662 92.0628C333.572 92.0628 336.715 93.2703 339.091 95.6851C341.506 98.0616 342.714 101.396 342.714 105.689V124.375H334.664V106.782C334.664 104.29 334.032 102.393 332.767 101.09C331.502 99.7481 329.777 99.0773 327.592 99.0773C325.407 99.0773 323.663 99.7481 322.36 101.09C321.095 102.393 320.463 104.29 320.463 106.782V124.375H312.413V106.782C312.413 104.29 311.781 102.393 310.516 101.09C309.251 99.7481 307.526 99.0773 305.342 99.0773C303.118 99.0773 301.355 99.7481 300.052 101.09C298.787 102.393 298.155 104.29 298.155 106.782V124.375H290.105V92.5228H298.155V96.375C299.189 95.0335 300.512 93.9794 302.122 93.2128C303.77 92.4462 305.571 92.0628 307.526 92.0628C310.018 92.0628 312.241 92.5995 314.196 93.6727C316.151 94.7076 317.665 96.2025 318.738 98.1574C319.773 96.3175 321.268 94.8418 323.223 93.7302C325.216 92.6186 327.362 92.0628 329.662 92.0628Z" fill="white"/>
<path d="M345.982 108.334C345.982 105.114 346.615 102.259 347.88 99.7673C349.183 97.2758 350.927 95.3593 353.112 94.0177C355.335 92.6761 357.807 92.0054 360.529 92.0054C362.905 92.0054 364.975 92.4845 366.738 93.4427C368.54 94.401 369.977 95.6084 371.05 97.065V92.5228H379.157V124.375H371.05V119.718C370.016 121.213 368.578 122.459 366.738 123.455C364.937 124.414 362.848 124.893 360.471 124.893C357.788 124.893 355.335 124.203 353.112 122.823C350.927 121.443 349.183 119.507 347.88 117.016C346.615 114.486 345.982 111.592 345.982 108.334ZM371.05 108.449C371.05 106.494 370.667 104.827 369.901 103.447C369.134 102.029 368.099 100.955 366.796 100.227C365.493 99.4606 364.093 99.0773 362.599 99.0773C361.104 99.0773 359.724 99.4415 358.459 100.17C357.194 100.898 356.159 101.971 355.354 103.389C354.588 104.769 354.204 106.418 354.204 108.334C354.204 110.251 354.588 111.937 355.354 113.394C356.159 114.812 357.194 115.904 358.459 116.671C359.762 117.438 361.142 117.821 362.599 117.821C364.093 117.821 365.493 117.457 366.796 116.728C368.099 115.962 369.134 114.889 369.901 113.509C370.667 112.09 371.05 110.404 371.05 108.449Z" fill="white"/>
<path d="M394.091 99.1348V114.544C394.091 115.617 394.34 116.403 394.838 116.901C395.375 117.361 396.257 117.591 397.483 117.591H401.22V124.375H396.161C389.376 124.375 385.984 121.079 385.984 114.486V99.1348H382.189V92.5228H385.984V84.6459H394.091V92.5228H401.22V99.1348H394.091Z" fill="white"/>
<path d="M408.792 88.7281C407.374 88.7281 406.186 88.2873 405.228 87.4057C404.308 86.4858 403.848 85.355 403.848 84.0135C403.848 82.6719 404.308 81.5603 405.228 80.6787C406.186 79.7588 407.374 79.2988 408.792 79.2988C410.21 79.2988 411.38 79.7588 412.299 80.6787C413.258 81.5603 413.737 82.6719 413.737 84.0135C413.737 85.355 413.258 86.4858 412.299 87.4057C411.38 88.2873 410.21 88.7281 408.792 88.7281ZM412.759 92.5228V124.375H404.71V92.5228H412.759Z" fill="white"/>
<path d="M432.556 124.893C429.49 124.893 426.73 124.222 424.277 122.88C421.824 121.501 419.888 119.565 418.47 117.073C417.09 114.582 416.4 111.707 416.4 108.449C416.4 105.191 417.109 102.316 418.527 99.8248C419.984 97.3333 421.958 95.4168 424.449 94.0752C426.941 92.6953 429.72 92.0054 432.786 92.0054C435.853 92.0054 438.632 92.6953 441.123 94.0752C443.615 95.4168 445.57 97.3333 446.988 99.8248C448.444 102.316 449.173 105.191 449.173 108.449C449.173 111.707 448.425 114.582 446.93 117.073C445.474 119.565 443.481 121.501 440.951 122.88C438.459 124.222 435.661 124.893 432.556 124.893ZM432.556 117.878C434.013 117.878 435.374 117.533 436.639 116.843C437.942 116.115 438.977 115.042 439.743 113.624C440.51 112.205 440.893 110.481 440.893 108.449C440.893 105.421 440.088 103.102 438.478 101.492C436.907 99.8439 434.971 99.0198 432.671 99.0198C430.372 99.0198 428.436 99.8439 426.864 101.492C425.331 103.102 424.564 105.421 424.564 108.449C424.564 111.477 425.312 113.815 426.807 115.464C428.34 117.073 430.257 117.878 432.556 117.878Z" fill="white"/>
<path d="M470.428 92.0628C474.223 92.0628 477.29 93.2703 479.628 95.6851C481.966 98.0616 483.135 101.396 483.135 105.689V124.375H475.086V106.782C475.086 104.252 474.453 102.316 473.188 100.975C471.923 99.5948 470.198 98.9048 468.014 98.9048C465.79 98.9048 464.027 99.5948 462.724 100.975C461.459 102.316 460.827 104.252 460.827 106.782V124.375H452.777V92.5228H460.827V96.49C461.9 95.1101 463.261 94.0369 464.909 93.2703C466.595 92.4653 468.435 92.0628 470.428 92.0628Z" fill="white"/>
<path d="M92.7515 91.6881V82.0042C80.9416 82.4105 71.4924 92.1124 71.4924 104.021V105.563H50.8032V104.021C50.8032 80.6856 69.514 61.72 92.7515 61.3086V50.834L128.21 71.6465L92.7515 91.6881Z" fill="white"/>
<path d="M110.928 104.021V105.563C110.928 117.472 101.48 127.173 89.6704 127.58V117.897L54.2121 137.938L89.6704 158.751V148.276C112.907 147.864 131.618 128.899 131.618 105.563V104.021H110.928Z" fill="white"/>
</svg>
